<?xml version="1.0" encoding="UTF-8" standalone="no"?>
<svg
   xmlns:dc="http://purl.org/dc/elements/1.1/"
   xmlns:cc="http://creativecommons.org/ns#"
   xmlns:rdf="http://www.w3.org/1999/02/22-rdf-syntax-ns#"
   xmlns:svg="http://www.w3.org/2000/svg"
   xmlns="http://www.w3.org/2000/svg"
   xmlns:sodipodi="http://sodipodi.sourceforge.net/DTD/sodipodi-0.dtd"
   xmlns:inkscape="http://www.inkscape.org/namespaces/inkscape"
   width="20"
   height="20"
   viewBox="0 0 20 20"
   fill="none"
   version="1.1"
   id="svg4"
   sodipodi:docname="VR_white.svg"
   inkscape:version="0.92.5 (2060ec1f9f, 2020-04-08)">
  <metadata
     id="metadata10">
    <rdf:RDF>
      <cc:Work
         rdf:about="">
        <dc:format>image/svg+xml</dc:format>
        <dc:type
           rdf:resource="http://purl.org/dc/dcmitype/StillImage" />
        <dc:title></dc:title>
      </cc:Work>
    </rdf:RDF>
  </metadata>
  <defs
     id="defs8" />
  <sodipodi:namedview
     pagecolor="#ffffff"
     bordercolor="#666666"
     borderopacity="1"
     objecttolerance="10"
     gridtolerance="10"
     guidetolerance="10"
     inkscape:pageopacity="0"
     inkscape:pageshadow="2"
     inkscape:window-width="826"
     inkscape:window-height="480"
     id="namedview6"
     showgrid="false"
     inkscape:zoom="11.8"
     inkscape:cx="10"
     inkscape:cy="10"
     inkscape:window-x="0"
     inkscape:window-y="27"
     inkscape:window-maximized="0"
     inkscape:current-layer="svg4" />
  <path
     d="M17.7143 4H2.03262C1.46569 4 1 4.46569 1 5.03262V14.5388C1 15.1057 1.46569 15.5714 2.03262 15.5714H6.49719C7.05399 15.5714 7.53993 15.2171 7.71204 14.6907L8.77503 11.5118C9.16985 10.3375 10.82 10.3375 11.2149 11.5118L12.2778 14.6907C12.4499 15.2171 12.946 15.5714 13.5028 15.5714H17.9674C18.5343 15.5714 19 15.1057 19 14.5388V5.28572C19 4.57705 18.4229 4 17.7143 4ZM6.47694 11.4713C4.69516 12.3622 2.92351 10.6007 3.8144 8.80878C3.96625 8.49494 4.21935 8.24184 4.53318 8.08999C6.31496 7.1991 8.08662 8.96063 7.19573 10.7525C7.03375 11.0664 6.78065 11.3195 6.47694 11.4713ZM15.4769 11.4713C13.6952 12.3622 11.9235 10.6007 12.8144 8.80878C12.9663 8.49494 13.2193 8.24184 13.5332 8.08999C15.315 7.1991 17.0866 8.96063 16.1957 10.7525C16.0337 11.0664 15.7807 11.3195 15.4769 11.4713Z"
     fill="black"
     id="path2"
     style="fill:#ffffff;fill-opacity:1" />
</svg>
